<mxfile host="app.diagrams.net" modified="2022-09-29T02:53:05.948Z" agent="5.0 (Windows NT 10.0; Win64; x64) AppleWebKit/537.36 (KHTML, like Gecko) Chrome/105.0.0.0 Safari/537.36" etag="h57YeEn19wuLy23WqvIW" version="20.3.3" type="github">
  <diagram id="3mXhcXMTkiGdqm0vBG_W" name="PÃ¡gina-1">
    <mxGraphModel dx="2207" dy="481" grid="1" gridSize="10" guides="1" tooltips="1" connect="1" arrows="1" fold="1" page="1" pageScale="1" pageWidth="1169" pageHeight="827" math="0" shadow="0">
      <root>
        <mxCell id="0" />
        <mxCell id="1" parent="0" />
        <mxCell id="Lz5ykbtThU0VcmX8xn6U-53" value="HECHOS" style="swimlane;fontStyle=1;childLayout=stackLayout;horizontal=1;startSize=26;horizontalStack=0;resizeParent=1;resizeParentMax=0;resizeLast=0;collapsible=1;marginBottom=0;align=center;fontSize=14;fillColor=#0050ef;strokeColor=#001DBC;fontColor=#ffffff;" parent="1" vertex="1">
          <mxGeometry x="440" y="400" width="160" height="206" as="geometry" />
        </mxCell>
        <mxCell id="Lz5ykbtThU0VcmX8xn6U-54" value="ID_DIMENSION1" style="text;strokeColor=none;fillColor=none;spacingLeft=4;spacingRight=4;overflow=hidden;rotatable=0;points=[[0,0.5],[1,0.5]];portConstraint=eastwest;fontSize=12;fontStyle=1" parent="Lz5ykbtThU0VcmX8xn6U-53" vertex="1">
          <mxGeometry y="26" width="160" height="30" as="geometry" />
        </mxCell>
        <mxCell id="Lz5ykbtThU0VcmX8xn6U-57" value="ID_DIMENSION2" style="text;strokeColor=none;fillColor=none;spacingLeft=4;spacingRight=4;overflow=hidden;rotatable=0;points=[[0,0.5],[1,0.5]];portConstraint=eastwest;fontSize=12;fontStyle=1" parent="Lz5ykbtThU0VcmX8xn6U-53" vertex="1">
          <mxGeometry y="56" width="160" height="30" as="geometry" />
        </mxCell>
        <mxCell id="Lz5ykbtThU0VcmX8xn6U-58" value="ID_DIMENSION3" style="text;strokeColor=none;fillColor=none;spacingLeft=4;spacingRight=4;overflow=hidden;rotatable=0;points=[[0,0.5],[1,0.5]];portConstraint=eastwest;fontSize=12;fontStyle=1" parent="Lz5ykbtThU0VcmX8xn6U-53" vertex="1">
          <mxGeometry y="86" width="160" height="30" as="geometry" />
        </mxCell>
        <mxCell id="Lz5ykbtThU0VcmX8xn6U-61" value="ID_DIMENSION4" style="text;strokeColor=none;fillColor=none;spacingLeft=4;spacingRight=4;overflow=hidden;rotatable=0;points=[[0,0.5],[1,0.5]];portConstraint=eastwest;fontSize=12;fontStyle=1" parent="Lz5ykbtThU0VcmX8xn6U-53" vertex="1">
          <mxGeometry y="116" width="160" height="30" as="geometry" />
        </mxCell>
        <mxCell id="Lz5ykbtThU0VcmX8xn6U-59" value="HECHO1" style="text;strokeColor=none;fillColor=none;spacingLeft=4;spacingRight=4;overflow=hidden;rotatable=0;points=[[0,0.5],[1,0.5]];portConstraint=eastwest;fontSize=12;" parent="Lz5ykbtThU0VcmX8xn6U-53" vertex="1">
          <mxGeometry y="146" width="160" height="30" as="geometry" />
        </mxCell>
        <mxCell id="Lz5ykbtThU0VcmX8xn6U-60" value="HECHON" style="text;strokeColor=none;fillColor=none;spacingLeft=4;spacingRight=4;overflow=hidden;rotatable=0;points=[[0,0.5],[1,0.5]];portConstraint=eastwest;fontSize=12;" parent="Lz5ykbtThU0VcmX8xn6U-53" vertex="1">
          <mxGeometry y="176" width="160" height="30" as="geometry" />
        </mxCell>
        <mxCell id="Lz5ykbtThU0VcmX8xn6U-62" value="DIMENSION1" style="swimlane;fontStyle=1;childLayout=stackLayout;horizontal=1;startSize=26;horizontalStack=0;resizeParent=1;resizeParentMax=0;resizeLast=0;collapsible=1;marginBottom=0;align=center;fontSize=14;fillColor=#d80073;strokeColor=#A50040;fontColor=#ffffff;" parent="1" vertex="1">
          <mxGeometry x="160" y="330" width="160" height="116" as="geometry" />
        </mxCell>
        <mxCell id="Lz5ykbtThU0VcmX8xn6U-63" value="ID_DIMENSION1" style="text;strokeColor=none;fillColor=none;spacingLeft=4;spacingRight=4;overflow=hidden;rotatable=0;points=[[0,0.5],[1,0.5]];portConstraint=eastwest;fontSize=12;fontStyle=1" parent="Lz5ykbtThU0VcmX8xn6U-62" vertex="1">
          <mxGeometry y="26" width="160" height="30" as="geometry" />
        </mxCell>
        <mxCell id="Lz5ykbtThU0VcmX8xn6U-67" value="ATRIBUTO1" style="text;strokeColor=none;fillColor=none;spacingLeft=4;spacingRight=4;overflow=hidden;rotatable=0;points=[[0,0.5],[1,0.5]];portConstraint=eastwest;fontSize=12;" parent="Lz5ykbtThU0VcmX8xn6U-62" vertex="1">
          <mxGeometry y="56" width="160" height="30" as="geometry" />
        </mxCell>
        <mxCell id="Lz5ykbtThU0VcmX8xn6U-68" value="ETRIBUTO 2" style="text;strokeColor=none;fillColor=none;spacingLeft=4;spacingRight=4;overflow=hidden;rotatable=0;points=[[0,0.5],[1,0.5]];portConstraint=eastwest;fontSize=12;" parent="Lz5ykbtThU0VcmX8xn6U-62" vertex="1">
          <mxGeometry y="86" width="160" height="30" as="geometry" />
        </mxCell>
        <mxCell id="Lz5ykbtThU0VcmX8xn6U-69" value="DIMENSION2" style="swimlane;fontStyle=1;childLayout=stackLayout;horizontal=1;startSize=26;horizontalStack=0;resizeParent=1;resizeParentMax=0;resizeLast=0;collapsible=1;marginBottom=0;align=center;fontSize=14;fillColor=#d80073;strokeColor=#A50040;fontColor=#ffffff;" parent="1" vertex="1">
          <mxGeometry x="720" y="330" width="160" height="116" as="geometry" />
        </mxCell>
        <mxCell id="Lz5ykbtThU0VcmX8xn6U-70" value="ID_DIMENSION1" style="text;strokeColor=none;fillColor=none;spacingLeft=4;spacingRight=4;overflow=hidden;rotatable=0;points=[[0,0.5],[1,0.5]];portConstraint=eastwest;fontSize=12;fontStyle=1" parent="Lz5ykbtThU0VcmX8xn6U-69" vertex="1">
          <mxGeometry y="26" width="160" height="30" as="geometry" />
        </mxCell>
        <mxCell id="Lz5ykbtThU0VcmX8xn6U-71" value="ATRIBUTO1" style="text;strokeColor=none;fillColor=none;spacingLeft=4;spacingRight=4;overflow=hidden;rotatable=0;points=[[0,0.5],[1,0.5]];portConstraint=eastwest;fontSize=12;" parent="Lz5ykbtThU0VcmX8xn6U-69" vertex="1">
          <mxGeometry y="56" width="160" height="30" as="geometry" />
        </mxCell>
        <mxCell id="Lz5ykbtThU0VcmX8xn6U-72" value="ETRIBUTO 2" style="text;strokeColor=none;fillColor=none;spacingLeft=4;spacingRight=4;overflow=hidden;rotatable=0;points=[[0,0.5],[1,0.5]];portConstraint=eastwest;fontSize=12;" parent="Lz5ykbtThU0VcmX8xn6U-69" vertex="1">
          <mxGeometry y="86" width="160" height="30" as="geometry" />
        </mxCell>
        <mxCell id="Lz5ykbtThU0VcmX8xn6U-77" value="DIMENSION3" style="swimlane;fontStyle=1;childLayout=stackLayout;horizontal=1;startSize=26;horizontalStack=0;resizeParent=1;resizeParentMax=0;resizeLast=0;collapsible=1;marginBottom=0;align=center;fontSize=14;fillColor=#d80073;strokeColor=#A50040;fontColor=#ffffff;" parent="1" vertex="1">
          <mxGeometry x="160" y="560" width="160" height="116" as="geometry" />
        </mxCell>
        <mxCell id="Lz5ykbtThU0VcmX8xn6U-78" value="ID_DIMENSION3" style="text;strokeColor=none;fillColor=none;spacingLeft=4;spacingRight=4;overflow=hidden;rotatable=0;points=[[0,0.5],[1,0.5]];portConstraint=eastwest;fontSize=12;fontStyle=1" parent="Lz5ykbtThU0VcmX8xn6U-77" vertex="1">
          <mxGeometry y="26" width="160" height="30" as="geometry" />
        </mxCell>
        <mxCell id="Lz5ykbtThU0VcmX8xn6U-79" value="ATRIBUTO1" style="text;strokeColor=none;fillColor=none;spacingLeft=4;spacingRight=4;overflow=hidden;rotatable=0;points=[[0,0.5],[1,0.5]];portConstraint=eastwest;fontSize=12;" parent="Lz5ykbtThU0VcmX8xn6U-77" vertex="1">
          <mxGeometry y="56" width="160" height="30" as="geometry" />
        </mxCell>
        <mxCell id="Lz5ykbtThU0VcmX8xn6U-80" value="ETRIBUTO 2" style="text;strokeColor=none;fillColor=none;spacingLeft=4;spacingRight=4;overflow=hidden;rotatable=0;points=[[0,0.5],[1,0.5]];portConstraint=eastwest;fontSize=12;" parent="Lz5ykbtThU0VcmX8xn6U-77" vertex="1">
          <mxGeometry y="86" width="160" height="30" as="geometry" />
        </mxCell>
        <mxCell id="Lz5ykbtThU0VcmX8xn6U-81" value="DIMENSION4" style="swimlane;fontStyle=1;childLayout=stackLayout;horizontal=1;startSize=26;horizontalStack=0;resizeParent=1;resizeParentMax=0;resizeLast=0;collapsible=1;marginBottom=0;align=center;fontSize=14;fillColor=#d80073;strokeColor=#A50040;fontColor=#ffffff;" parent="1" vertex="1">
          <mxGeometry x="720" y="550" width="160" height="116" as="geometry" />
        </mxCell>
        <mxCell id="Lz5ykbtThU0VcmX8xn6U-82" value="ID_DIMENSION4" style="text;strokeColor=none;fillColor=none;spacingLeft=4;spacingRight=4;overflow=hidden;rotatable=0;points=[[0,0.5],[1,0.5]];portConstraint=eastwest;fontSize=12;fontStyle=1" parent="Lz5ykbtThU0VcmX8xn6U-81" vertex="1">
          <mxGeometry y="26" width="160" height="30" as="geometry" />
        </mxCell>
        <mxCell id="Lz5ykbtThU0VcmX8xn6U-83" value="ATRIBUTO1" style="text;strokeColor=none;fillColor=none;spacingLeft=4;spacingRight=4;overflow=hidden;rotatable=0;points=[[0,0.5],[1,0.5]];portConstraint=eastwest;fontSize=12;" parent="Lz5ykbtThU0VcmX8xn6U-81" vertex="1">
          <mxGeometry y="56" width="160" height="30" as="geometry" />
        </mxCell>
        <mxCell id="Lz5ykbtThU0VcmX8xn6U-84" value="ETRIBUTO 2" style="text;strokeColor=none;fillColor=none;spacingLeft=4;spacingRight=4;overflow=hidden;rotatable=0;points=[[0,0.5],[1,0.5]];portConstraint=eastwest;fontSize=12;" parent="Lz5ykbtThU0VcmX8xn6U-81" vertex="1">
          <mxGeometry y="86" width="160" height="30" as="geometry" />
        </mxCell>
        <mxCell id="Lz5ykbtThU0VcmX8xn6U-85" value="" style="endArrow=none;html=1;fontColor=#0000CC;strokeColor=#660066;rounded=0;" parent="1" edge="1">
          <mxGeometry relative="1" as="geometry">
            <mxPoint x="600" y="480" as="sourcePoint" />
            <mxPoint x="720" y="400" as="targetPoint" />
          </mxGeometry>
        </mxCell>
        <mxCell id="Lz5ykbtThU0VcmX8xn6U-87" value="" style="endArrow=none;html=1;fontColor=#0000CC;entryX=0.002;entryY=0.207;entryDx=0;entryDy=0;entryPerimeter=0;strokeColor=#660066;rounded=0;" parent="1" target="Lz5ykbtThU0VcmX8xn6U-61" edge="1">
          <mxGeometry relative="1" as="geometry">
            <mxPoint x="320" y="600" as="sourcePoint" />
            <mxPoint x="478.72" y="540" as="targetPoint" />
          </mxGeometry>
        </mxCell>
        <mxCell id="Lz5ykbtThU0VcmX8xn6U-88" value="" style="endArrow=none;html=1;fontColor=#0000CC;strokeColor=#660066;rounded=0;exitX=0.997;exitY=0.073;exitDx=0;exitDy=0;exitPerimeter=0;" parent="1" source="Lz5ykbtThU0VcmX8xn6U-61" edge="1">
          <mxGeometry relative="1" as="geometry">
            <mxPoint x="610" y="490" as="sourcePoint" />
            <mxPoint x="720" y="600" as="targetPoint" />
          </mxGeometry>
        </mxCell>
        <mxCell id="Lz5ykbtThU0VcmX8xn6U-89" value="" style="endArrow=none;html=1;fontColor=#0000CC;entryX=-0.003;entryY=0.767;entryDx=0;entryDy=0;entryPerimeter=0;strokeColor=#660066;rounded=0;" parent="1" target="Lz5ykbtThU0VcmX8xn6U-57" edge="1">
          <mxGeometry relative="1" as="geometry">
            <mxPoint x="320" y="400" as="sourcePoint" />
            <mxPoint x="450.31999999999994" y="532.21" as="targetPoint" />
          </mxGeometry>
        </mxCell>
        <mxCell id="T5h-EHfrxAwlZzFsEZH6-1" value="DIMENSION5" style="swimlane;fontStyle=1;childLayout=stackLayout;horizontal=1;startSize=26;horizontalStack=0;resizeParent=1;resizeParentMax=0;resizeLast=0;collapsible=1;marginBottom=0;align=center;fontSize=14;fillColor=#d80073;strokeColor=#A50040;fontColor=#ffffff;" vertex="1" parent="1">
          <mxGeometry x="-160" y="284" width="160" height="116" as="geometry" />
        </mxCell>
        <mxCell id="T5h-EHfrxAwlZzFsEZH6-2" value="ID_DIMENSION5" style="text;strokeColor=none;fillColor=none;spacingLeft=4;spacingRight=4;overflow=hidden;rotatable=0;points=[[0,0.5],[1,0.5]];portConstraint=eastwest;fontSize=12;fontStyle=1" vertex="1" parent="T5h-EHfrxAwlZzFsEZH6-1">
          <mxGeometry y="26" width="160" height="30" as="geometry" />
        </mxCell>
        <mxCell id="T5h-EHfrxAwlZzFsEZH6-3" value="ATRIBUTO1" style="text;strokeColor=none;fillColor=none;spacingLeft=4;spacingRight=4;overflow=hidden;rotatable=0;points=[[0,0.5],[1,0.5]];portConstraint=eastwest;fontSize=12;" vertex="1" parent="T5h-EHfrxAwlZzFsEZH6-1">
          <mxGeometry y="56" width="160" height="30" as="geometry" />
        </mxCell>
        <mxCell id="T5h-EHfrxAwlZzFsEZH6-4" value="ETRIBUTO 2" style="text;strokeColor=none;fillColor=none;spacingLeft=4;spacingRight=4;overflow=hidden;rotatable=0;points=[[0,0.5],[1,0.5]];portConstraint=eastwest;fontSize=12;" vertex="1" parent="T5h-EHfrxAwlZzFsEZH6-1">
          <mxGeometry y="86" width="160" height="30" as="geometry" />
        </mxCell>
        <mxCell id="T5h-EHfrxAwlZzFsEZH6-5" value="" style="endArrow=none;html=1;fontColor=#0000CC;entryX=0;entryY=0.5;entryDx=0;entryDy=0;strokeColor=#660066;rounded=0;" edge="1" parent="1" target="Lz5ykbtThU0VcmX8xn6U-67">
          <mxGeometry relative="1" as="geometry">
            <mxPoint y="320.99" as="sourcePoint" />
            <mxPoint x="119.51999999999998" y="400" as="targetPoint" />
          </mxGeometry>
        </mxCell>
        <mxCell id="T5h-EHfrxAwlZzFsEZH6-6" value="DIMENSION6" style="swimlane;fontStyle=1;childLayout=stackLayout;horizontal=1;startSize=26;horizontalStack=0;resizeParent=1;resizeParentMax=0;resizeLast=0;collapsible=1;marginBottom=0;align=center;fontSize=14;fillColor=#d80073;strokeColor=#A50040;fontColor=#ffffff;" vertex="1" parent="1">
          <mxGeometry x="1040" y="250" width="160" height="116" as="geometry" />
        </mxCell>
        <mxCell id="T5h-EHfrxAwlZzFsEZH6-7" value="ID_DIMENSION6" style="text;strokeColor=none;fillColor=none;spacingLeft=4;spacingRight=4;overflow=hidden;rotatable=0;points=[[0,0.5],[1,0.5]];portConstraint=eastwest;fontSize=12;fontStyle=1" vertex="1" parent="T5h-EHfrxAwlZzFsEZH6-6">
          <mxGeometry y="26" width="160" height="30" as="geometry" />
        </mxCell>
        <mxCell id="T5h-EHfrxAwlZzFsEZH6-8" value="ATRIBUTO1" style="text;strokeColor=none;fillColor=none;spacingLeft=4;spacingRight=4;overflow=hidden;rotatable=0;points=[[0,0.5],[1,0.5]];portConstraint=eastwest;fontSize=12;" vertex="1" parent="T5h-EHfrxAwlZzFsEZH6-6">
          <mxGeometry y="56" width="160" height="30" as="geometry" />
        </mxCell>
        <mxCell id="T5h-EHfrxAwlZzFsEZH6-9" value="ETRIBUTO 2" style="text;strokeColor=none;fillColor=none;spacingLeft=4;spacingRight=4;overflow=hidden;rotatable=0;points=[[0,0.5],[1,0.5]];portConstraint=eastwest;fontSize=12;" vertex="1" parent="T5h-EHfrxAwlZzFsEZH6-6">
          <mxGeometry y="86" width="160" height="30" as="geometry" />
        </mxCell>
        <mxCell id="T5h-EHfrxAwlZzFsEZH6-10" value="DIMENSION7" style="swimlane;fontStyle=1;childLayout=stackLayout;horizontal=1;startSize=26;horizontalStack=0;resizeParent=1;resizeParentMax=0;resizeLast=0;collapsible=1;marginBottom=0;align=center;fontSize=14;fillColor=#d80073;strokeColor=#A50040;fontColor=#ffffff;" vertex="1" parent="1">
          <mxGeometry x="1040" y="400" width="160" height="116" as="geometry" />
        </mxCell>
        <mxCell id="T5h-EHfrxAwlZzFsEZH6-11" value="ID_DIMENSION7" style="text;strokeColor=none;fillColor=none;spacingLeft=4;spacingRight=4;overflow=hidden;rotatable=0;points=[[0,0.5],[1,0.5]];portConstraint=eastwest;fontSize=12;fontStyle=1" vertex="1" parent="T5h-EHfrxAwlZzFsEZH6-10">
          <mxGeometry y="26" width="160" height="30" as="geometry" />
        </mxCell>
        <mxCell id="T5h-EHfrxAwlZzFsEZH6-12" value="ATRIBUTO1" style="text;strokeColor=none;fillColor=none;spacingLeft=4;spacingRight=4;overflow=hidden;rotatable=0;points=[[0,0.5],[1,0.5]];portConstraint=eastwest;fontSize=12;" vertex="1" parent="T5h-EHfrxAwlZzFsEZH6-10">
          <mxGeometry y="56" width="160" height="30" as="geometry" />
        </mxCell>
        <mxCell id="T5h-EHfrxAwlZzFsEZH6-13" value="ETRIBUTO 2" style="text;strokeColor=none;fillColor=none;spacingLeft=4;spacingRight=4;overflow=hidden;rotatable=0;points=[[0,0.5],[1,0.5]];portConstraint=eastwest;fontSize=12;" vertex="1" parent="T5h-EHfrxAwlZzFsEZH6-10">
          <mxGeometry y="86" width="160" height="30" as="geometry" />
        </mxCell>
        <mxCell id="T5h-EHfrxAwlZzFsEZH6-15" value="" style="endArrow=none;html=1;fontColor=#0000CC;strokeColor=#660066;rounded=0;entryX=0;entryY=0.133;entryDx=0;entryDy=0;entryPerimeter=0;" edge="1" parent="1" target="T5h-EHfrxAwlZzFsEZH6-7">
          <mxGeometry relative="1" as="geometry">
            <mxPoint x="880" y="400" as="sourcePoint" />
            <mxPoint x="1000" y="320" as="targetPoint" />
          </mxGeometry>
        </mxCell>
        <mxCell id="T5h-EHfrxAwlZzFsEZH6-16" value="" style="endArrow=none;html=1;fontColor=#0000CC;strokeColor=#660066;rounded=0;entryX=0.011;entryY=0.887;entryDx=0;entryDy=0;entryPerimeter=0;exitX=1;exitY=0.5;exitDx=0;exitDy=0;" edge="1" parent="1" source="Lz5ykbtThU0VcmX8xn6U-71" target="T5h-EHfrxAwlZzFsEZH6-12">
          <mxGeometry relative="1" as="geometry">
            <mxPoint x="890" y="410" as="sourcePoint" />
            <mxPoint x="1050" y="289.99" as="targetPoint" />
          </mxGeometry>
        </mxCell>
        <mxCell id="T5h-EHfrxAwlZzFsEZH6-17" value="DIMENSION7" style="swimlane;fontStyle=1;childLayout=stackLayout;horizontal=1;startSize=26;horizontalStack=0;resizeParent=1;resizeParentMax=0;resizeLast=0;collapsible=1;marginBottom=0;align=center;fontSize=14;fillColor=#d80073;strokeColor=#A50040;fontColor=#ffffff;" vertex="1" parent="1">
          <mxGeometry x="1040" y="640" width="160" height="116" as="geometry" />
        </mxCell>
        <mxCell id="T5h-EHfrxAwlZzFsEZH6-18" value="ID_DIMENSION7" style="text;strokeColor=none;fillColor=none;spacingLeft=4;spacingRight=4;overflow=hidden;rotatable=0;points=[[0,0.5],[1,0.5]];portConstraint=eastwest;fontSize=12;fontStyle=1" vertex="1" parent="T5h-EHfrxAwlZzFsEZH6-17">
          <mxGeometry y="26" width="160" height="30" as="geometry" />
        </mxCell>
        <mxCell id="T5h-EHfrxAwlZzFsEZH6-19" value="ATRIBUTO1" style="text;strokeColor=none;fillColor=none;spacingLeft=4;spacingRight=4;overflow=hidden;rotatable=0;points=[[0,0.5],[1,0.5]];portConstraint=eastwest;fontSize=12;" vertex="1" parent="T5h-EHfrxAwlZzFsEZH6-17">
          <mxGeometry y="56" width="160" height="30" as="geometry" />
        </mxCell>
        <mxCell id="T5h-EHfrxAwlZzFsEZH6-20" value="ETRIBUTO 2" style="text;strokeColor=none;fillColor=none;spacingLeft=4;spacingRight=4;overflow=hidden;rotatable=0;points=[[0,0.5],[1,0.5]];portConstraint=eastwest;fontSize=12;" vertex="1" parent="T5h-EHfrxAwlZzFsEZH6-17">
          <mxGeometry y="86" width="160" height="30" as="geometry" />
        </mxCell>
        <mxCell id="T5h-EHfrxAwlZzFsEZH6-21" value="" style="endArrow=none;html=1;fontColor=#0000CC;strokeColor=#660066;rounded=0;entryX=0.011;entryY=0.887;entryDx=0;entryDy=0;entryPerimeter=0;exitX=1;exitY=0.5;exitDx=0;exitDy=0;" edge="1" parent="1">
          <mxGeometry relative="1" as="geometry">
            <mxPoint x="880" y="600" as="sourcePoint" />
            <mxPoint x="1041.7600000000002" y="681.61" as="targetPoint" />
          </mxGeometry>
        </mxCell>
      </root>
    </mxGraphModel>
  </diagram>
</mxfile>
